<svg
        version="1.0"
        xmlns="http://www.w3.org/2000/svg"
        viewBox="0 0 500.000000 500.000000"
        preserveAspectRatio="xMidYMid meet"
>
    <g
            transform="translate(0.000000,500.000000) scale(0.100000,-0.100000)"
            stroke="none"
    >
        <path
                d="M2295 4095 c-307 -60 -539 -199 -719 -430 -146 -187 -213 -342 -252
        -575 -58 -353 68 -733 332 -995 180 -179 408 -294 655 -330 134 -19 214 -19
        348 0 252 37 470 146 654 328 233 229 349 506 349 827 0 318 -106 583 -329
        820 -156 167 -356 284 -573 336 -139 33 -349 42 -465 19z m378 -145 c5 -4 -15
        -30 -45 -58 -31 -30 -89 -108 -141 -190 -88 -139 -90 -141 -145 -163 -32 -12
        -93 -40 -137 -61 -80 -38 -100 -43 -129 -32 -14 5 -14 9 1 37 86 167 295 429
        378 476 22 12 203 5 218 -9z m-423 -18 c0 -5 -27 -40 -60 -78 -68 -78 -195
        -265 -255 -375 -38 -71 -43 -76 -120 -116 -66 -35 -148 -66 -267 -99 -24 -7
        -23 10 7 85 79 202 328 454 525 533 155 62 170 66 170 50z m665 -62 c36 -17
        65 -35 65 -40 0 -6 -20 -38 -46 -72 -72 -98 -117 -185 -110 -212 7 -28 51 -47
        82 -36 11 5 37 37 58 71 55 94 109 172 123 176 30 10 226 -209 298 -332 31
        -51 27 -73 -14 -98 -61 -36 -137 -20 -266 55 -86 50 -94 52 -171 55 -70 2 -90
        7 -160 41 -43 22 -108 50 -143 63 -35 13 -65 29 -68 35 -5 14 67 136 124 209
        37 47 129 115 156 115 4 0 37 -14 72 -30z m-353 -409 c122 -49 229 -101 232
        -114 2 -7 11 -50 20 -97 l16 -85 -88 -85 -87 -85 -173 1 -173 1 -87 86 -86 86
        16 53 c9 29 19 72 23 95 l7 42 146 65 c81 36 150 65 154 66 4 0 40 -13 80 -29z
        m-768 -345 c-71 -167 -95 -221 -172 -378 -47 -98 -89 -178 -93 -178 -10 0 -47
        144 -60 235 -11 78 -5 235 10 293 7 25 21 32 167 82 l159 56 3 -35 c2 -19 -4
        -53 -14 -75z m1430 89 c62 -19 122 -19 175 0 51 18 53 8 9 -61 -17 -27 -62
        -109 -99 -183 -73 -145 -68 -144 -84 -31 -4 25 -23 85 -42 134 -26 67 -33 96
        -28 122 7 39 5 38 69 19z m-1117 -157 c24 -24 64 -67 89 -95 l45 -53 -11 -77
        c-8 -56 -8 -101 -1 -162 l11 -84 -56 -64 c-31 -35 -72 -75 -90 -90 l-34 -25
        -72 29 -73 29 -30 84 c-36 98 -60 122 -100 96 -14 -9 -25 -24 -25 -34 0 -30
        29 -114 55 -157 21 -36 23 -47 14 -76 -11 -38 -3 -101 17 -140 35 -69 171
        -169 230 -169 11 0 59 -17 105 -39 91 -41 220 -71 311 -71 80 0 221 35 298 74
        36 18 85 36 108 40 93 14 195 93 232 178 18 43 21 63 16 111 -6 56 -4 60 32
        110 75 104 189 317 272 507 49 112 54 115 62 34 9 -97 -8 -257 -38 -361 -35
        -125 -83 -221 -164 -328 -206 -275 -483 -414 -823 -416 -217 -1 -404 54 -567
        169 -112 79 -256 228 -299 310 -16 31 -5 65 76 227 35 71 71 145 78 165 7 19
        35 89 62 154 l49 120 58 13 c32 7 65 17 74 23 29 16 43 11 89 -32z m877 21
        c39 -12 78 -25 86 -28 8 -4 25 -45 38 -92 35 -124 34 -275 -2 -383 -15 -44
        -30 -86 -35 -93 -4 -8 -44 -29 -89 -47 l-80 -33 -83 84 -82 84 -1 175 -1 176
        83 89 c46 49 86 89 90 89 3 0 37 -10 76 -21z m-245 -669 l89 -85 -16 -87 -17
        -87 -55 -25 c-30 -14 -98 -39 -152 -58 l-96 -33 -79 23 c-43 13 -112 38 -153
        55 l-75 32 -22 90 -23 90 88 85 89 85 166 0 166 -1 90 -84z"
        />
        <path
                d="M1706 1458 c-7 -23 -16 -555 -10 -572 5 -12 21 -16 70 -16 l63 0 3
        108 3 107 71 3 70 3 27 53 c15 29 27 58 27 64 0 8 -30 12 -95 12 -91 0 -95 1
        -101 24 -3 13 -4 37 -2 52 l3 29 130 5 130 5 0 65 0 65 -193 3 c-149 2 -193 0
        -196 -10z"
        />
        <path
                d="M2405 1448 c-4 -13 -54 -141 -111 -285 -57 -144 -104 -269 -104 -277
        0 -13 13 -16 69 -16 l69 0 28 70 27 70 72 0 72 0 27 -70 28 -70 69 0 c49 0 69
        4 69 13 0 6 -23 71 -51 142 -27 72 -63 168 -79 215 -16 47 -42 117 -58 155
        l-29 70 -46 3 c-40 3 -46 0 -52 -20z m53 -306 c-28 -5 -33 4 -18 35 l13 28 12
        -30 c12 -27 12 -30 -7 -33z"
        />
        <path
                d="M2875 1458 c-3 -7 -4 -141 -3 -298 l3 -285 65 0 65 0 5 105 5 105 74
        5 75 5 27 50 c16 28 28 55 29 62 0 9 -30 13 -102 15 l-103 3 -3 52 -3 52 133
        3 133 3 0 65 0 65 -198 3 c-153 2 -199 0 -202 -10z"
        />
    </g>
</svg>